<svg width="64" height="64" viewBox="0 0 64 64" fill="none" xmlns="http://www.w3.org/2000/svg">
<circle cx="32" cy="32" r="32" fill="#081B29"/>
<path d="M38.5829 22.528C40.5242 22.528 41.9749 23.0293 42.9349 24.032C43.8949 25.0133 44.3749 26.6133 44.3749 28.832V40H41.5909V28.96C41.5909 27.616 41.3029 26.6027 40.7269 25.92C40.1722 25.2373 39.2975 24.896 38.1029 24.896C36.4389 24.896 35.2442 25.376 34.5189 26.336C33.8149 27.296 33.4629 28.6933 33.4629 30.528V40H30.6789V28.96C30.6789 28.064 30.5509 27.3173 30.2949 26.72C30.0389 26.1013 29.6549 25.6427 29.1429 25.344C28.6309 25.0453 27.9695 24.896 27.1589 24.896C26.0069 24.896 25.1002 25.1413 24.4389 25.632C23.7775 26.1013 23.2975 26.7947 22.9989 27.712C22.7215 28.6293 22.5829 29.76 22.5829 31.104V40H19.7669V22.848H22.0389L22.4549 25.184H22.6149C22.9775 24.5867 23.4149 24.096 23.9269 23.712C24.4602 23.3067 25.0469 23.008 25.6869 22.816C26.3269 22.624 26.9882 22.528 27.6709 22.528C28.9935 22.528 30.0922 22.7627 30.9669 23.232C31.8629 23.7013 32.5135 24.4267 32.9189 25.408H33.0789C33.6549 24.4267 34.4335 23.7013 35.4149 23.232C36.4175 22.7627 37.4735 22.528 38.5829 22.528Z" fill="#00ABF0"/>
</svg>
